<svg width="96" height="84" viewBox="0 0 96 84" fill="none" xmlns="http://www.w3.org/2000/svg">
<path d="M48 2.39343C39.9871 2.39343 33.5303 6.12154 21.6508 12.9807C21.5242 13.0538 21.397 13.1272 21.2692 13.201L21.1635 13.262C15.129 16.7461 10.4722 19.4347 7.33574 21.808C4.23811 24.152 2.14807 26.529 2.14807 29.5V54.5C2.14807 57.4711 4.23811 59.848 7.33574 62.1921C10.4721 64.5654 15.1289 67.254 21.1634 70.738L21.2692 70.7991L21.6508 71.0194C33.5303 77.8785 39.9871 81.6066 48 81.6066C56.0129 81.6066 62.4697 77.8785 74.3492 71.0194L74.7308 70.7991L74.8366 70.738C80.8711 67.254 85.5279 64.5654 88.6643 62.192C91.7619 59.848 93.8519 57.4711 93.8519 54.5V54.4027V54.3059V54.2096V54.114V54.0189V53.9243V53.8303V53.7369V53.644V53.5517V53.4599V53.3687V53.278V53.1879V53.0983V53.0093V52.9207V52.8328V52.7453V52.6584V52.572V52.4861V52.4008V52.3159V52.2316V52.1478V52.0646V51.9818V51.8995V51.8178V51.7365V51.6558V51.5756V51.4958V51.4166V51.3378V51.2596V51.1818V51.1045V51.0277V50.9514V50.8756V50.8002V50.7253V50.6509V50.577V50.5035V50.4305V50.358V50.2859V50.2143V50.1432V50.0725V50.0022V49.9324V49.8631V49.7942V49.7257V49.6577V49.5902V49.523V49.4563V49.3901V49.3243V49.2589V49.1939V49.1293V49.0652V49.0015V48.9382V48.8754V48.8129V48.7509V48.6892V48.628V48.5672V48.5067V48.4467V48.3871V48.3279V48.269V48.2106V48.1525V48.0948V48.0376V47.9807V47.9241V47.868V47.8122V47.7568V47.7018V47.6471V47.5929V47.5389V47.4854V47.4322V47.3793V47.3268V47.2747V47.2229V47.1715V47.1204V47.0696V47.0192V46.9692V46.9194V46.87V46.821V46.7722V46.7238V46.6758V46.628V46.5806V46.5335V46.4867V46.4402V46.394V46.3482V46.3027V46.2574V46.2125V46.1678V46.1235V46.0795V46.0357V45.9923V45.9491V45.9063V45.8637V45.8214V45.7794V45.7376V45.6962V45.655V45.6141V45.5734V45.5331V45.4929V45.4531V45.4135V45.3742V45.3351V45.2963V45.2578V45.2194V45.1814V45.1436V45.106V45.0687V45.0316V44.9947V44.9581V44.9217V44.8856V44.8496V44.8139V44.7785V44.7432V44.7082V44.6733V44.6387V44.6043V44.5701V44.5362V44.5024V44.4688V44.4355V44.4023V44.3693V44.3365V44.304V44.2716V44.2394V44.2073V44.1755V44.1438V44.1124V44.0811V44.0499V44.019V43.9882V43.9576V43.9271V43.8968V43.8667V43.8367V43.8069V43.7773V43.7478V43.7184V43.6892V43.6601V43.6312V43.6024V43.5738V43.5453V43.5169V43.4887V43.4606V43.4326V43.4047V43.377V43.3494V43.3219V43.2945V43.2672V43.2401V43.213V43.1861V43.1593V43.1325V43.1059V43.0794V43.053V43.0266V43.0004V42.9742V42.9481V42.9221V42.8962V42.8704V42.8447V42.819V42.7934V42.7679V42.7424V42.717V42.6917V42.6665V42.6413V42.6161V42.591V42.566V42.541V42.5161V42.4912V42.4664V42.4416V42.4168V42.3921V42.3674V42.3428V42.3181V42.2936V42.269V42.2445V42.2199V42.1954V42.171V42.1465V42.1221V42.0976V42.0732V42.0488V42.0244V41.9999V41.9755V41.9511V41.9267V41.9023V41.8778V41.8534V41.8289V41.8044V41.7799V41.7554V41.7309V41.7063V41.6817V41.6571V41.6325V41.6078V41.5831V41.5583V41.5335V41.5087V41.4838V41.4588V41.4339V41.4088V41.3838V41.3586V41.3334V41.3082V41.2828V41.2574V41.232V41.2065V41.1809V41.1552V41.1295V41.1036V41.0777V41.0517V41.0257V40.9995V40.9733V40.9469V40.9205V40.894V40.8673V40.8406V40.8138V40.7868V40.7598V40.7326V40.7054V40.678V40.6505V40.6229V40.5952V40.5673V40.5393V40.5112V40.483V40.4546V40.4261V40.3975V40.3687V40.3398V40.3107V40.2815V40.2521V40.2226V40.193V40.1631V40.1332V40.1031V40.0728V40.0423V40.0117V39.9809V39.95V39.9188V39.8875V39.856V39.8244V39.7926V39.7605V39.7283V39.6959V39.6633V39.6306V39.5976V39.5644V39.5311V39.4975V39.4637V39.4297V39.3956V39.3612V39.3266V39.2917V39.2567V39.2214V39.186V39.1503V39.1143V39.0782V39.0418V39.0052V38.9683V38.9312V38.8939V38.8563V38.8185V38.7805V38.7422V38.7036V38.6648V38.6257V38.5864V38.5468V38.507V38.4669V38.4265V38.3858V38.3449V38.3037V38.2623V38.2206V38.1785V38.1362V38.0937V38.0508V38.0076V37.9642V37.9204V37.8764V37.8321V37.7874V37.7425V37.6973V37.6517V37.6059V37.5597V37.5132V37.4665V37.4193V37.3719V37.3242V37.2761V37.2277V37.179V37.1299V37.0805V37.0308V36.9807V36.9303V36.8796V36.8285V36.7771V36.7253V36.6731V36.6206V36.5678V36.5146V36.461V36.4071V36.3528V36.2982V36.2431V36.1877V36.132V36.0758V36.0193V35.9624V35.9051V35.8474V35.7894V35.7309V35.6721V35.6129V35.5533V35.4932V35.4328V35.372V35.3108V35.2491V35.1871V35.1246V35.0618V34.9985V34.9348V34.8706V34.8061V34.7411V34.6757V34.6099V34.5436V34.4769V34.4098V34.3423V34.2743V34.2058V34.1369V34.0676V33.9978V33.9275V33.8568V33.7857V33.7141V33.642V33.5695V33.4965V33.423V33.3491V33.2747V33.1998V33.1244V33.0486V32.9723V32.8955V32.8182V32.7405V32.6622V32.5834V32.5042V32.4245V32.3442V32.2635V32.1822V32.1005V32.0182V31.9355V31.8522V31.7684V31.6841V31.5993V31.5139V31.4281V31.3417V31.2547V31.1673V31.0793V30.9908V30.9017V30.8121V30.722V30.6313V30.5401V30.4483V30.356V30.2632V30.1697V30.0757V29.9812V29.8861V29.7904V29.6942V29.5974V29.5C93.8519 26.529 91.7619 24.152 88.6643 21.808C85.5279 19.4347 80.871 16.7461 74.8365 13.262L74.7308 13.201L74.3492 12.9807C62.4697 6.12153 56.0129 2.39343 48 2.39343Z" fill="#474C59" stroke="#474C59" stroke-width="3"/>
<path d="M92.3438 29.5H3.625V54.5L3.64806 54.5C3.64806 58.8934 9.77179 62.4289 22.0192 69.5C34.2667 76.5711 40.3904 80.1066 48 80.1066C55.6096 80.1066 61.7333 76.5711 73.9808 69.5C86.2282 62.4289 92.3519 58.8934 92.3519 54.5C92.3519 54.4073 92.3492 54.3149 92.3438 54.2229V29.5Z" fill="url(#paint0_linear_118_1340)"/>
<path d="M22.0192 14.5C34.2667 7.42897 40.3904 3.89343 48 3.89343C55.6096 3.89343 61.7333 7.42897 73.9808 14.5C86.2282 21.5711 92.3519 25.1066 92.3519 29.5C92.3519 33.8934 86.2282 37.429 73.9808 44.5C61.7333 51.5711 55.6096 55.1066 48 55.1066C40.3904 55.1066 34.2667 51.5711 22.0192 44.5C9.7718 37.429 3.64807 33.8934 3.64807 29.5C3.64807 25.1066 9.7718 21.5711 22.0192 14.5Z" fill="url(#paint1_linear_118_1340)"/>
<path fill-rule="evenodd" clip-rule="evenodd" d="M50.8642 15.1796C50.067 14.7194 48.7746 14.7194 47.9774 15.1796L43.6473 17.6796C42.8502 18.1399 42.8502 18.8861 43.6473 19.3463L52.3076 24.3463L47.9774 26.8463L42.2039 23.513C41.7826 23.2697 41.1981 23.1449 40.604 23.1713L31.2221 23.5879C31.0941 23.5936 30.9697 23.606 30.85 23.6245L29.2136 22.6796C28.4164 22.2194 27.124 22.2194 26.3268 22.6796L20.5533 26.013C19.7562 26.4732 19.7562 27.2194 20.5533 27.6797L26.3268 31.013C27.124 31.4732 28.4164 31.4732 29.2136 31.013L34.9871 27.6796C35.7842 27.2194 35.7842 26.4732 34.9871 26.013L34.6199 25.801L39.9811 25.5629L45.0907 28.513L42.2039 30.1796L40.7606 29.3463C39.9634 28.8861 38.671 28.8861 37.8738 29.3463L32.1003 32.6796C31.3032 33.1399 31.3032 33.8861 32.1003 34.3463L37.8738 37.6797C38.671 38.1399 39.9634 38.1399 40.7606 37.6797L46.5341 34.3463C47.3312 33.8861 47.3312 33.1399 46.5341 32.6796L45.0907 31.8463L47.9774 30.1796L53.0704 33.1201L52.6686 36.2214L52.3076 36.013C51.5104 35.5527 50.218 35.5527 49.4208 36.013L43.6473 39.3463C42.8502 39.8066 42.8502 40.5527 43.6473 41.013L49.4208 44.3463C50.218 44.8066 51.5104 44.8066 52.3076 44.3463L58.0811 41.013C58.8782 40.5527 58.8782 39.8066 58.0811 39.3463L56.4446 38.4015C56.4769 38.3316 56.4985 38.259 56.5082 38.1842L57.2113 32.7568C57.2557 32.4146 57.0394 32.0783 56.6192 31.8356L50.8642 28.513L55.1943 26.013L63.8546 31.013C64.6517 31.4732 65.9442 31.4732 66.7413 31.013L71.0715 28.513C71.8686 28.0527 71.8686 27.3066 71.0715 26.8463L50.8642 15.1796ZM39.3172 31.8463L42.2039 33.513L39.3172 35.1796L36.4304 33.513L39.3172 31.8463ZM65.298 28.513L66.7413 27.6796L49.4208 17.6796L47.9774 18.513L65.298 28.513ZM24.8834 26.8463L27.7702 25.1796L30.6569 26.8463L27.7702 28.513L24.8834 26.8463ZM47.9774 40.1796L50.8642 38.513L53.7509 40.1796L50.8642 41.8463L47.9774 40.1796Z" fill="#6E7CA5"/>
<path d="M66.7413 27.6796L65.298 28.513L47.9774 18.513L49.4208 17.6796L66.7413 27.6796Z" fill="#6E7CA5"/>
<path d="M27.7702 25.1796L24.8834 26.8463L27.7702 28.513L30.6569 26.8463L27.7702 25.1796Z" fill="#6E7CA5"/>
<path d="M39.3172 35.1796L42.2039 33.513L39.3172 31.8463L36.4304 33.513L39.3172 35.1796Z" fill="#6E7CA5"/>
<path d="M50.8642 38.513L47.9774 40.1796L50.8642 41.8463L53.7509 40.1796L50.8642 38.513Z" fill="#6E7CA5"/>
<defs>
<linearGradient id="paint0_linear_118_1340" x1="92.3519" y1="58.951" x2="3.625" y2="58.951" gradientUnits="userSpaceOnUse">
<stop stop-color="#D1D8EF"/>
<stop offset="0.398949" stop-color="#D8E1FB"/>
<stop offset="0.607454" stop-color="#B5BED9"/>
<stop offset="1" stop-color="#B4BDD8"/>
</linearGradient>
<linearGradient id="paint1_linear_118_1340" x1="3.59556" y1="3.92375" x2="7.03117" y2="60.3305" gradientUnits="userSpaceOnUse">
<stop stop-color="#EDF1FD"/>
<stop offset="1" stop-color="#E1E5F1"/>
</linearGradient>
</defs>
</svg>
